<svg width="60" height="60" viewBox="0 0 60 60" fill="none" xmlns="http://www.w3.org/2000/svg">
<path d="M30 4.28571C14.5714 4.28571 2.14286 16.7143 2.14286 32.1429C2.14286 47.5714 14.5714 60 30 60C45.4286 60 57.8571 47.5714 57.8571 32.1429C57.8571 16.7143 45.4286 4.28571 30 4.28571ZM30 55.9286C16.9286 55.9286 6.21429 45.2143 6.21429 32.1429C6.21429 19.0714 16.9286 8.35714 30 8.35714C43.0714 8.35714 53.7857 19.0714 53.7857 32.1429C53.7857 45.2143 43.0714 55.9286 30 55.9286ZM3.64286 12.2143L12.2143 3.64286C13.0714 2.78571 13.0714 1.5 12.2143 0.642857C11.3571 -0.214286 10.0714 -0.214286 9.21429 0.642857L0.642857 9.21429C-0.214286 10.0714 -0.214286 11.3571 0.642857 12.2143C1.07143 12.6429 1.5 12.8571 2.14286 12.8571C2.78571 12.8571 3.21429 12.6429 3.64286 12.2143ZM59.3571 9.21429L50.7857 0.642857C49.9286 -0.214286 48.6429 -0.214286 47.7857 0.642857C46.9286 1.5 46.9286 2.78571 47.7857 3.64286L56.3571 12.2143C56.7857 12.6429 57.2143 12.8571 57.8571 12.8571C58.5 12.8571 58.9286 12.6429 59.3571 12.2143C60.2143 11.3571 60.2143 10.0714 59.3571 9.21429Z" fill="#0D1321"/>
<path d="M46.9282 34.2879H46.7139C45.6424 34.0737 44.7853 33.2165 44.7853 32.1451C44.7853 31.0737 45.6424 30.2165 46.7139 30.0022H49.2853C48.2139 21.0022 41.1424 13.9308 32.1424 12.8594V15.4308C31.9282 16.5022 31.071 17.3594 29.9996 17.3594C28.9282 17.3594 28.071 16.5022 27.8567 15.4308V12.8594C18.8567 13.9308 11.7853 21.0022 10.7139 30.0022H13.2853C14.3567 30.2165 15.2139 31.0737 15.2139 32.1451C15.2139 33.2165 14.3567 34.0737 13.2853 34.2879H10.7139C11.7853 43.2879 18.8567 50.3594 27.8567 51.4308V48.8594C28.071 47.7879 28.9282 46.9308 29.9996 46.9308C31.071 46.9308 31.9282 47.7879 32.1424 48.8594V51.4308C41.1424 50.3594 48.2139 43.2879 49.2853 34.2879H46.9282C47.1424 34.2879 47.1424 34.2879 46.9282 34.2879ZM38.571 34.2879H32.1424V40.7165C32.1424 41.7879 31.071 42.8594 29.9996 42.8594C28.9282 42.8594 27.8567 41.7879 27.8567 40.7165V34.2879H21.4282C20.3567 34.2879 19.2853 33.2165 19.2853 32.1451C19.2853 31.0737 20.3567 30.0022 21.4282 30.0022H27.8567V23.5737C27.8567 22.5022 28.9282 21.4308 29.9996 21.4308C31.071 21.4308 32.1424 22.5022 32.1424 23.5737V30.0022H38.571C39.6424 30.0022 40.7139 31.0737 40.7139 32.1451C40.7139 33.2165 39.6424 34.2879 38.571 34.2879Z" fill="#0D1321"/>
</svg>
